<svg width="51" height="45" viewBox="0 0 51 45" fill="none" xmlns="http://www.w3.org/2000/svg">
<g filter="url(#filter0_d_11777_2514)">
<path d="M22.4241 28.0719C22.4627 29.7772 22.298 31.2092 23.2858 32.2842C24.3476 33.4397 24.9786 33.415 26.6479 33.3497C27.1116 33.3315 27.6555 33.3102 28.3109 33.3102C28.7573 33.3102 29.1465 33.3152 29.4894 33.3195C31.4627 33.3445 31.9066 33.3502 32.934 32.2842C33.7857 31.4004 33.7978 29.8157 33.8111 28.0719C33.8166 27.3466 33.8111 26.6927 33.8888 25.8418C34.0847 24.8574 34.3913 24.6059 34.9943 24.1901C35.5973 23.7742 35.8988 23.7396 36.7531 23.5999C37.6074 23.4603 39.1454 23.2737 40.1596 23.2301C41.5319 23.171 42.6149 23.1245 43.135 22.5488C44.0395 21.5478 44.0799 20.797 43.939 17.944C43.9118 17.3921 43.8943 16.9252 43.8794 16.5236C43.8116 14.7034 43.7937 14.2232 43.135 13.2391C42.2536 12.1661 40.8356 12.1598 38.3291 12.1486C37.4448 12.1447 36.425 12.1401 35.2455 12.0879C34.3913 11.8271 34.3913 11.727 34.0898 11.4267C33.7565 11.0948 33.5725 10.6342 33.537 9.88568C33.5138 9.39567 33.506 8.88905 33.4983 8.38828C33.4717 6.65407 33.4461 4.99011 32.7833 4.32986C31.9648 3.5146 29.9735 3.59445 28.1031 3.66944C28.0213 3.67272 27.9398 3.67599 27.8586 3.67917C27.6875 3.68589 27.5162 3.6918 27.3455 3.69769C25.6182 3.75731 23.9537 3.81476 23.0848 4.68023C22.4365 5.32592 22.4519 6.65263 22.4689 8.1192C22.4769 8.81262 22.4853 9.5373 22.4241 10.236C22.3667 10.8905 22.13 11.4267 21.6777 11.7771C21.2255 12.1274 20.6727 12.2345 20.2707 12.2881C19.8184 12.3483 17.8648 12.4154 16.7072 12.3904C14.8962 12.3513 13.3069 12.3171 12.6325 12.9888C11.6127 14.0046 11.6192 15.6593 11.6263 17.4814C11.6269 17.6345 11.6275 17.7888 11.6275 17.944C11.6275 19.9732 11.9793 22.0483 12.934 22.9993C13.5665 23.6293 14.8781 23.5995 16.3371 23.5663C17.0534 23.5501 17.0534 23.5999 17.8084 23.5999C18.4609 23.6594 19.3544 23.676 19.9177 23.7896C20.4811 23.9033 21.4767 24.3411 22.186 25.5882C22.4241 27.0931 22.4097 27.4349 22.4241 28.0719Z" fill="#4179F0"/>
<path d="M28.0529 2.42081C28.9669 2.38416 30.0178 2.33999 30.9464 2.42081C31.8136 2.49631 32.9185 2.70059 33.6652 3.44424C34.3184 4.09494 34.5239 5.05913 34.6193 5.79581C34.7228 6.59585 34.7352 7.52274 34.7482 8.36905C34.7559 8.87344 34.7632 9.35967 34.7853 9.82608C34.799 10.1151 34.8396 10.2842 34.8751 10.3808C34.9061 10.4649 34.9377 10.5069 34.9718 10.5409C35.0214 10.5903 35.0633 10.6348 35.0948 10.6679C35.1283 10.7029 35.1451 10.719 35.1593 10.7333C35.1886 10.7473 35.272 10.7825 35.463 10.8446C36.5467 10.8891 37.4921 10.8946 38.3351 10.8983C39.5468 10.9038 40.6518 10.9045 41.5587 11.0644C42.5263 11.2349 43.413 11.6082 44.1007 12.4452C44.1266 12.4767 44.1513 12.51 44.174 12.5439C44.5654 13.1288 44.8178 13.6463 44.9542 14.3202C45.0744 14.9143 45.0958 15.6108 45.1281 16.4774C45.143 16.879 45.1608 17.3393 45.1876 17.8827C45.2562 19.272 45.2939 20.313 45.1642 21.1357C45.0154 22.0794 44.6522 22.734 44.0626 23.3866C43.5227 23.9842 42.7857 24.2061 42.1876 24.3134C41.5798 24.4224 40.8719 24.4511 40.213 24.4794C39.2632 24.5203 37.7775 24.6995 36.9552 24.8339C36.4855 24.9107 36.2994 24.9394 36.1417 24.9872C36.0367 25.0191 35.9269 25.0651 35.7042 25.2187C35.394 25.4326 35.3311 25.4965 35.2931 25.5478C35.2697 25.5792 35.2018 25.6791 35.1281 26.0233C35.0625 26.7775 35.0661 27.3598 35.0607 28.081C35.0542 28.928 35.0506 29.8584 34.923 30.6903C34.7952 31.5231 34.52 32.4395 33.8341 33.1513C33.2572 33.7499 32.6964 34.2043 31.8868 34.4189C31.1959 34.6018 30.385 34.5808 29.4738 34.5692C29.1305 34.5649 28.7483 34.5605 28.3107 34.5605C27.6822 34.5605 27.1597 34.5804 26.6964 34.5985C25.9281 34.6286 25.1416 34.6713 24.424 34.4843C23.6087 34.2718 22.9883 33.8077 22.3654 33.1298C21.6361 32.3362 21.3643 31.4285 21.2579 30.5673C21.1608 29.7802 21.1906 28.839 21.174 28.1005C21.1612 27.5348 21.1732 27.2512 20.9855 26.0224C20.4961 25.2791 19.9078 25.0625 19.67 25.0146C19.4774 24.9757 19.1871 24.9476 18.8107 24.9218C18.4921 24.8999 18.0858 24.8771 17.7531 24.8485C17.3746 24.8473 17.1682 24.8354 16.9874 24.8251C16.8291 24.8161 16.6837 24.8091 16.3654 24.8163C15.6611 24.8323 14.8751 24.8521 14.1837 24.7733C13.5145 24.6971 12.6744 24.5048 12.0519 23.8847C11.3303 23.1659 10.9333 22.1397 10.7052 21.1591C10.4701 20.1483 10.3771 19.022 10.3771 17.9442C10.3771 17.7919 10.3767 17.6397 10.3761 17.4862C10.3726 16.6025 10.3661 15.6228 10.5109 14.7323C10.6589 13.8222 10.9843 12.8664 11.7501 12.1034C12.4159 11.4403 13.3717 11.2542 14.1202 11.1796C14.9192 11.1001 15.8529 11.1215 16.7345 11.1405C17.8759 11.1651 19.7514 11.0959 20.1056 11.0487C20.4688 11.0003 20.7368 10.9248 20.9122 10.789C21.0119 10.7118 21.1422 10.5452 21.1788 10.1269C21.2337 9.50038 21.227 8.83831 21.2189 8.1337C21.2107 7.42542 21.1993 6.63361 21.2872 5.93546C21.3728 5.25687 21.5774 4.41747 22.2023 3.79483C22.9057 3.09417 23.8422 2.8017 24.6769 2.65518C25.5202 2.50716 26.4621 2.47717 27.3029 2.44815C27.4738 2.44225 27.6421 2.43715 27.8097 2.43057C27.8902 2.42742 27.9711 2.42409 28.0529 2.42081Z" stroke="#4179F0" stroke-width="2.5" stroke-miterlimit="16" stroke-linejoin="round"/>
</g>
<g filter="url(#filter1_dd_11777_2514)">
<path d="M22.7153 27.5089C22.7518 29.1138 22.5961 30.4616 23.5305 31.4733C24.5349 32.5609 25.1318 32.5377 26.7109 32.4761C27.1495 32.4591 27.6639 32.439 28.284 32.439C28.7063 32.439 29.0744 32.4437 29.3988 32.4478C31.2654 32.4713 31.6853 32.4766 32.6572 31.4733C33.4629 30.6416 33.4743 29.1501 33.4868 27.5089C33.492 26.8262 33.4868 26.2108 33.5603 25.4099C33.7456 24.4834 34.0357 24.2467 34.6061 23.8553C35.1765 23.464 35.4617 23.4314 36.2698 23.2999C37.0779 23.1685 38.5328 22.9929 39.4922 22.9518C40.7903 22.8963 41.8147 22.8524 42.3067 22.3107C43.1624 21.3685 43.2006 20.6619 43.0673 17.9767C43.0415 17.4572 43.0251 17.0178 43.0109 16.6398C42.9467 14.9267 42.9298 14.4748 42.3067 13.5485C41.473 12.5387 40.1316 12.5327 37.7607 12.5222C36.9242 12.5185 35.9595 12.5142 34.8438 12.4651C34.0357 12.2196 34.0357 12.1254 33.7505 11.8428C33.4352 11.5304 33.2612 11.0969 33.2276 10.3924C33.2056 9.93121 33.1983 9.45439 33.191 8.98308C33.1658 7.35088 33.1416 5.7848 32.5146 5.16339C31.7403 4.39609 29.8567 4.47124 28.0874 4.54182C28.0101 4.54491 27.9329 4.54798 27.8562 4.55098C27.6942 4.5573 27.5322 4.56286 27.3708 4.56841C25.7368 4.62452 24.1623 4.67859 23.3403 5.49315C22.7271 6.10086 22.7417 7.34953 22.7577 8.72983C22.7653 9.38246 22.7733 10.0645 22.7153 10.7222C22.6611 11.3381 22.4372 11.8428 22.0094 12.1725C21.5815 12.5023 21.0587 12.6031 20.6784 12.6535C20.2506 12.7102 18.4025 12.7733 17.3075 12.7498C15.5944 12.713 14.091 12.6807 13.4531 13.313C12.4883 14.2691 12.4945 15.8264 12.5012 17.5413C12.5018 17.6854 12.5024 17.8306 12.5024 17.9767C12.5024 19.8865 12.8351 21.8396 13.7383 22.7346C14.3365 23.3275 15.5773 23.2995 16.9574 23.2683C17.635 23.253 17.635 23.2999 18.3492 23.2999C18.9664 23.3559 19.8116 23.3715 20.3445 23.4785C20.8774 23.5855 21.8192 23.9975 22.4902 25.1712C22.7153 26.5876 22.7017 26.9093 22.7153 27.5089Z" fill="#4179F0"/>
<path d="M28.0577 3.79288C28.9295 3.7581 29.8932 3.71778 30.7384 3.79092C31.5467 3.86091 32.4524 4.04648 33.0421 4.63077C33.5497 5.13376 33.7331 5.91103 33.8224 6.59756C33.9166 7.32186 33.9281 8.16807 33.9406 8.97159C33.9479 9.44503 33.9554 9.90945 33.9767 10.3564C34.0049 10.9481 34.1416 11.1748 34.2784 11.3105C34.3212 11.3528 34.3584 11.3911 34.3878 11.4218C34.4192 11.4545 34.4387 11.4748 34.4572 11.4931C34.4873 11.523 34.4994 11.5327 34.5118 11.5409C34.549 11.5653 34.6486 11.6161 34.9747 11.7187C36.0326 11.7631 36.952 11.7688 37.7638 11.7724C38.9244 11.7775 39.9265 11.7793 40.7394 11.9218C41.5354 12.0614 42.228 12.3473 42.7775 12.9472L42.8849 13.0712L42.9288 13.1298C43.2778 13.6486 43.4886 14.084 43.6036 14.6493C43.7089 15.1667 43.7298 15.7817 43.7609 16.6122C43.775 16.9901 43.791 17.4252 43.8165 17.9394C43.882 19.2596 43.9134 20.1925 43.799 20.9149C43.6729 21.7104 43.3729 22.2532 42.8624 22.8153C42.4483 23.2714 41.8669 23.4564 41.3331 23.5517C40.7934 23.6479 40.1571 23.674 39.5245 23.7011C38.6035 23.7405 37.1788 23.9116 36.3898 24.0399C35.9606 24.1097 35.7494 24.1427 35.5656 24.1982C35.413 24.2442 35.2685 24.3102 35.0304 24.4735C34.7398 24.6729 34.6237 24.7687 34.5402 24.8808C34.4669 24.9791 34.3818 25.1436 34.3029 25.5243C34.2372 26.2645 34.2416 26.8353 34.2365 27.5146C34.2303 28.3202 34.2256 29.1624 34.1105 29.9091C33.9952 30.6566 33.7551 31.4173 33.1954 31.995C32.6713 32.5361 32.2081 32.899 31.5548 33.0712C30.9727 33.2246 30.2779 33.2094 29.3898 33.1982C29.0653 33.1941 28.7012 33.1894 28.2843 33.1894C27.6805 33.1894 27.1787 33.2084 26.7404 33.2255C25.9903 33.2547 25.3197 33.2881 24.7169 33.1317C24.0558 32.9603 23.5373 32.5862 22.9796 31.9823C22.3706 31.3229 22.1362 30.5637 22.0421 29.8056C21.9536 29.0925 21.9826 28.2598 21.9659 27.5263C21.9533 26.9689 21.9648 26.6829 21.7697 25.4296C21.2284 24.559 20.532 24.2811 20.1964 24.2138C19.9831 24.171 19.683 24.1424 19.3273 24.1181C19.0067 24.0962 18.6277 24.076 18.3156 24.0487C17.9585 24.048 17.7688 24.037 17.5968 24.0273C17.4384 24.0183 17.2892 24.0114 16.9747 24.0185C16.2997 24.0337 15.5883 24.0505 14.9698 23.9804C14.3651 23.9118 13.6931 23.7462 13.2101 23.2675C12.6114 22.6741 12.2596 21.8001 12.0509 20.9071C11.838 19.9962 11.7521 18.9695 11.7521 17.9765C11.7521 17.8322 11.7517 17.6881 11.7511 17.5439C11.7478 16.7029 11.742 15.8181 11.8722 15.0214C12.0044 14.2125 12.2884 13.4111 12.9249 12.7802C13.4411 12.2686 14.2099 12.1028 14.9034 12.0341C15.6274 11.9624 16.4812 11.9818 17.3234 11.9999C18.4087 12.0232 20.2109 11.959 20.5802 11.9101C20.9374 11.8627 21.2901 11.7798 21.5519 11.578C21.7674 11.4117 21.9263 11.129 21.9679 10.6562C22.022 10.0421 22.0156 9.39753 22.0079 8.73819C22.0001 8.06323 21.9906 7.34977 22.0695 6.72745C22.1469 6.11644 22.3247 5.44447 22.8126 4.96085C23.3851 4.39348 24.1655 4.13983 24.922 4.00772C25.6839 3.87467 26.5416 3.84683 27.3448 3.81924C27.5066 3.81369 27.6674 3.80791 27.8273 3.80167C27.9036 3.79869 27.9805 3.79596 28.0577 3.79288Z" stroke="white" stroke-width="1.5" stroke-linejoin="round"/>
</g>
<defs>
<filter id="filter0_d_11777_2514" x="5.12488" y="1.12503" width="45.3751" height="42.7508" filterUnits="userSpaceOnUse" color-interpolation-filters="sRGB">
<feFlood flood-opacity="0" result="BackgroundImageFix"/>
<feColorMatrix in="SourceAlpha" type="matrix" values="0 0 0 0 0 0 0 0 0 0 0 0 0 0 0 0 0 0 127 0" result="hardAlpha"/>
<feOffset dy="4"/>
<feGaussianBlur stdDeviation="2"/>
<feComposite in2="hardAlpha" operator="out"/>
<feColorMatrix type="matrix" values="0 0 0 0 0 0 0 0 0 0 0 0 0 0 0 0 0 0 0.12 0"/>
<feBlend mode="normal" in2="BackgroundImageFix" result="effect1_dropShadow_11777_2514"/>
<feBlend mode="normal" in="SourceGraphic" in2="effect1_dropShadow_11777_2514" result="shape"/>
</filter>
<filter id="filter1_dd_11777_2514" x="0" y="0" width="50.6251" height="45.0004" filterUnits="userSpaceOnUse" color-interpolation-filters="sRGB">
<feFlood flood-opacity="0" result="BackgroundImageFix"/>
<feColorMatrix in="SourceAlpha" type="matrix" values="0 0 0 0 0 0 0 0 0 0 0 0 0 0 0 0 0 0 127 0" result="hardAlpha"/>
<feOffset dy="4"/>
<feGaussianBlur stdDeviation="3"/>
<feComposite in2="hardAlpha" operator="out"/>
<feColorMatrix type="matrix" values="0 0 0 0 0 0 0 0 0 0 0 0 0 0 0 0 0 0 0.12 0"/>
<feBlend mode="normal" in2="BackgroundImageFix" result="effect1_dropShadow_11777_2514"/>
<feColorMatrix in="SourceAlpha" type="matrix" values="0 0 0 0 0 0 0 0 0 0 0 0 0 0 0 0 0 0 127 0" result="hardAlpha"/>
<feOffset dx="-4" dy="4"/>
<feGaussianBlur stdDeviation="3.5"/>
<feComposite in2="hardAlpha" operator="out"/>
<feColorMatrix type="matrix" values="0 0 0 0 0 0 0 0 0 0 0 0 0 0 0 0 0 0 0.05 0"/>
<feBlend mode="normal" in2="effect1_dropShadow_11777_2514" result="effect2_dropShadow_11777_2514"/>
<feBlend mode="normal" in="SourceGraphic" in2="effect2_dropShadow_11777_2514" result="shape"/>
</filter>
</defs>
</svg>
