<svg width="134" height="101" viewBox="0 0 134 101" fill="none" xmlns="http://www.w3.org/2000/svg">
<g opacity="0.7">
<path d="M5.07404 97.1844L3.90311 101L2.73218 97.1844L0 94.2667L3.90311 95.1644L7.80622 94.2667L5.07404 97.1844Z" fill="#E7E7E7"/>
<path d="M23.1017 97.1844L21.9308 101L20.7599 97.1844L18.0277 94.2667L21.9308 95.1644L25.8339 94.2667L23.1017 97.1844Z" fill="#E7E7E7"/>
<path d="M39.9585 101L41.1294 97.1844L43.8616 94.2667L39.9585 95.1644L36.0554 94.2667L38.7875 97.1844L39.9585 101Z" fill="#E7E7E7"/>
<path d="M59.1571 97.1844L57.9862 101L56.8152 97.1844L54.0831 94.2667L57.9862 95.1644L61.8893 94.2667L59.1571 97.1844Z" fill="#E7E7E7"/>
<path d="M76.0138 101L77.1848 97.1844L79.9169 94.2667L76.0138 95.1644L72.1107 94.2667L74.8429 97.1844L76.0138 101Z" fill="#E7E7E7"/>
<path d="M95.2125 97.1844L94.0415 101L92.8706 97.1844L90.1384 94.2667L94.0415 95.1644L97.9446 94.2667L95.2125 97.1844Z" fill="#E7E7E7"/>
<path d="M112.069 101L113.24 97.1844L115.972 94.2667L112.069 95.1644L108.166 94.2667L110.898 97.1844L112.069 101Z" fill="#E7E7E7"/>
<path d="M131.268 97.1844L130.097 101L128.926 97.1844L126.194 94.2667L130.097 95.1644L134 94.2667L131.268 97.1844Z" fill="#E7E7E7"/>
<path d="M3.90311 87.5333L5.07404 83.7178L7.80622 80.8L3.90311 81.6978L0 80.8L2.73218 83.7178L3.90311 87.5333Z" fill="#E7E7E7"/>
<path d="M23.1017 83.7178L21.9308 87.5333L20.7599 83.7178L18.0277 80.8L21.9308 81.6978L25.8339 80.8L23.1017 83.7178Z" fill="#E7E7E7"/>
<path d="M39.9585 87.5333L41.1294 83.7178L43.8616 80.8L39.9585 81.6978L36.0554 80.8L38.7875 83.7178L39.9585 87.5333Z" fill="#E7E7E7"/>
<path d="M59.1571 83.7178L57.9862 87.5333L56.8152 83.7178L54.0831 80.8L57.9862 81.6978L61.8893 80.8L59.1571 83.7178Z" fill="#E7E7E7"/>
<path d="M76.0138 87.5333L77.1848 83.7178L79.9169 80.8L76.0138 81.6978L72.1107 80.8L74.8429 83.7178L76.0138 87.5333Z" fill="#E7E7E7"/>
<path d="M95.2125 83.7178L94.0415 87.5333L92.8706 83.7178L90.1384 80.8L94.0415 81.6978L97.9446 80.8L95.2125 83.7178Z" fill="#E7E7E7"/>
<path d="M112.069 87.5333L113.24 83.7178L115.972 80.8L112.069 81.6978L108.166 80.8L110.898 83.7178L112.069 87.5333Z" fill="#E7E7E7"/>
<path d="M131.268 83.7178L130.097 87.5333L128.926 83.7178L126.194 80.8L130.097 81.6978L134 80.8L131.268 83.7178Z" fill="#E7E7E7"/>
<path d="M3.90311 74.0667L5.07404 70.2511L7.80622 67.3333L3.90311 68.2311L0 67.3333L2.73218 70.2511L3.90311 74.0667Z" fill="#E7E7E7"/>
<path d="M23.1017 70.2511L21.9308 74.0667L20.7599 70.2511L18.0277 67.3333L21.9308 68.2311L25.8339 67.3333L23.1017 70.2511Z" fill="#E7E7E7"/>
<path d="M39.9585 74.0667L41.1294 70.2511L43.8616 67.3333L39.9585 68.2311L36.0554 67.3333L38.7875 70.2511L39.9585 74.0667Z" fill="#E7E7E7"/>
<path d="M59.1571 70.2511L57.9862 74.0667L56.8152 70.2511L54.0831 67.3333L57.9862 68.2311L61.8893 67.3333L59.1571 70.2511Z" fill="#E7E7E7"/>
<path d="M76.0138 74.0667L77.1848 70.2511L79.9169 67.3333L76.0138 68.2311L72.1107 67.3333L74.8429 70.2511L76.0138 74.0667Z" fill="#E7E7E7"/>
<path d="M95.2125 70.2511L94.0415 74.0667L92.8706 70.2511L90.1384 67.3333L94.0415 68.2311L97.9446 67.3333L95.2125 70.2511Z" fill="#E7E7E7"/>
<path d="M112.069 74.0667L113.24 70.2511L115.972 67.3333L112.069 68.2311L108.166 67.3333L110.898 70.2511L112.069 74.0667Z" fill="#E7E7E7"/>
<path d="M131.268 70.2511L130.097 74.0667L128.926 70.2511L126.194 67.3333L130.097 68.2311L134 67.3333L131.268 70.2511Z" fill="#E7E7E7"/>
<path d="M3.90311 60.6L5.07404 56.7844L7.80622 53.8667L3.90311 54.7644L0 53.8667L2.73218 56.7844L3.90311 60.6Z" fill="#E7E7E7"/>
<path d="M23.1017 56.7844L21.9308 60.6L20.7599 56.7844L18.0277 53.8667L21.9308 54.7644L25.8339 53.8667L23.1017 56.7844Z" fill="#E7E7E7"/>
<path d="M39.9585 60.6L41.1294 56.7844L43.8616 53.8667L39.9585 54.7644L36.0554 53.8667L38.7875 56.7844L39.9585 60.6Z" fill="#E7E7E7"/>
<path d="M59.1571 56.7844L57.9862 60.6L56.8152 56.7844L54.0831 53.8667L57.9862 54.7644L61.8893 53.8667L59.1571 56.7844Z" fill="#E7E7E7"/>
<path d="M76.0138 60.6L77.1848 56.7844L79.9169 53.8667L76.0138 54.7644L72.1107 53.8667L74.8429 56.7844L76.0138 60.6Z" fill="#E7E7E7"/>
<path d="M95.2125 56.7844L94.0415 60.6L92.8706 56.7844L90.1384 53.8667L94.0415 54.7644L97.9446 53.8667L95.2125 56.7844Z" fill="#E7E7E7"/>
<path d="M112.069 60.6L113.24 56.7844L115.972 53.8667L112.069 54.7644L108.166 53.8667L110.898 56.7844L112.069 60.6Z" fill="#E7E7E7"/>
<path d="M131.268 56.7844L130.097 60.6L128.926 56.7844L126.194 53.8667L130.097 54.7644L134 53.8667L131.268 56.7844Z" fill="#E7E7E7"/>
<path d="M3.90311 47.1333L5.07404 43.3178L7.80622 40.4L3.90311 41.2978L0 40.4L2.73218 43.3178L3.90311 47.1333Z" fill="#E7E7E7"/>
<path d="M23.1017 43.3178L21.9308 47.1333L20.7599 43.3178L18.0277 40.4L21.9308 41.2978L25.8339 40.4L23.1017 43.3178Z" fill="#E7E7E7"/>
<path d="M39.9585 47.1333L41.1294 43.3178L43.8616 40.4L39.9585 41.2978L36.0554 40.4L38.7875 43.3178L39.9585 47.1333Z" fill="#E7E7E7"/>
<path d="M59.1571 43.3178L57.9862 47.1333L56.8152 43.3178L54.0831 40.4L57.9862 41.2978L61.8893 40.4L59.1571 43.3178Z" fill="#E7E7E7"/>
<path d="M76.0138 47.1333L77.1848 43.3178L79.9169 40.4L76.0138 41.2978L72.1107 40.4L74.8429 43.3178L76.0138 47.1333Z" fill="#E7E7E7"/>
<path d="M95.2125 43.3178L94.0415 47.1333L92.8706 43.3178L90.1384 40.4L94.0415 41.2978L97.9446 40.4L95.2125 43.3178Z" fill="#E7E7E7"/>
<path d="M112.069 47.1333L113.24 43.3178L115.972 40.4L112.069 41.2978L108.166 40.4L110.898 43.3178L112.069 47.1333Z" fill="#E7E7E7"/>
<path d="M131.268 43.3178L130.097 47.1333L128.926 43.3178L126.194 40.4L130.097 41.2978L134 40.4L131.268 43.3178Z" fill="#E7E7E7"/>
<path d="M3.90311 33.6667L5.07404 29.8511L7.80622 26.9333L3.90311 27.8311L0 26.9333L2.73218 29.8511L3.90311 33.6667Z" fill="#E7E7E7"/>
<path d="M23.1017 29.8511L21.9308 33.6667L20.7599 29.8511L18.0277 26.9333L21.9308 27.8311L25.8339 26.9333L23.1017 29.8511Z" fill="#E7E7E7"/>
<path d="M39.9585 33.6667L41.1294 29.8511L43.8616 26.9333L39.9585 27.8311L36.0554 26.9333L38.7875 29.8511L39.9585 33.6667Z" fill="#E7E7E7"/>
<path d="M59.1571 29.8511L57.9862 33.6667L56.8152 29.8511L54.0831 26.9333L57.9862 27.8311L61.8893 26.9333L59.1571 29.8511Z" fill="#E7E7E7"/>
<path d="M76.0138 33.6667L77.1848 29.8511L79.9169 26.9333L76.0138 27.8311L72.1107 26.9333L74.8429 29.8511L76.0138 33.6667Z" fill="#E7E7E7"/>
<path d="M95.2125 29.8511L94.0415 33.6667L92.8706 29.8511L90.1384 26.9333L94.0415 27.8311L97.9446 26.9333L95.2125 29.8511Z" fill="#E7E7E7"/>
<path d="M112.069 33.6667L113.24 29.8511L115.972 26.9333L112.069 27.8311L108.166 26.9333L110.898 29.8511L112.069 33.6667Z" fill="#E7E7E7"/>
<path d="M131.268 29.8511L130.097 33.6667L128.926 29.8511L126.194 26.9333L130.097 27.8311L134 26.9333L131.268 29.8511Z" fill="#E7E7E7"/>
<path d="M3.90311 20.2L5.07404 16.3844L7.80622 13.4667L3.90311 14.3644L0 13.4667L2.73218 16.3844L3.90311 20.2Z" fill="#E7E7E7"/>
<path d="M23.1017 16.3844L21.9308 20.2L20.7599 16.3844L18.0277 13.4667L21.9308 14.3644L25.8339 13.4667L23.1017 16.3844Z" fill="#E7E7E7"/>
<path d="M39.9585 20.2L41.1294 16.3844L43.8616 13.4667L39.9585 14.3644L36.0554 13.4667L38.7875 16.3844L39.9585 20.2Z" fill="#E7E7E7"/>
<path d="M59.1571 16.3844L57.9862 20.2L56.8152 16.3844L54.0831 13.4667L57.9862 14.3644L61.8893 13.4667L59.1571 16.3844Z" fill="#E7E7E7"/>
<path d="M76.0138 20.2L77.1848 16.3844L79.9169 13.4667L76.0138 14.3644L72.1107 13.4667L74.8429 16.3844L76.0138 20.2Z" fill="#E7E7E7"/>
<path d="M95.2125 16.3844L94.0415 20.2L92.8706 16.3844L90.1384 13.4667L94.0415 14.3644L97.9446 13.4667L95.2125 16.3844Z" fill="#E7E7E7"/>
<path d="M112.069 20.2L113.24 16.3844L115.972 13.4667L112.069 14.3644L108.166 13.4667L110.898 16.3844L112.069 20.2Z" fill="#E7E7E7"/>
<path d="M131.268 16.3844L130.097 20.2L128.926 16.3844L126.194 13.4667L130.097 14.3644L134 13.4667L131.268 16.3844Z" fill="#E7E7E7"/>
<path d="M3.90311 6.73333L5.07404 2.91778L7.80622 0L3.90311 0.897774L0 0L2.73218 2.91778L3.90311 6.73333Z" fill="#E7E7E7"/>
<path d="M23.1017 2.91778L21.9308 6.73333L20.7599 2.91778L18.0277 0L21.9308 0.897774L25.8339 0L23.1017 2.91778Z" fill="#E7E7E7"/>
<path d="M39.9585 6.73333L41.1294 2.91778L43.8616 0L39.9585 0.897774L36.0554 0L38.7875 2.91778L39.9585 6.73333Z" fill="#E7E7E7"/>
<path d="M59.1571 2.91778L57.9862 6.73333L56.8152 2.91778L54.0831 0L57.9862 0.897774L61.8893 0L59.1571 2.91778Z" fill="#E7E7E7"/>
<path d="M76.0138 6.73333L77.1848 2.91778L79.9169 0L76.0138 0.897774L72.1107 0L74.8429 2.91778L76.0138 6.73333Z" fill="#E7E7E7"/>
<path d="M95.2125 2.91778L94.0415 6.73333L92.8706 2.91778L90.1384 0L94.0415 0.897774L97.9446 0L95.2125 2.91778Z" fill="#E7E7E7"/>
<path d="M112.069 6.73333L113.24 2.91778L115.972 0L112.069 0.897774L108.166 0L110.898 2.91778L112.069 6.73333Z" fill="#E7E7E7"/>
<path d="M131.268 2.91778L130.097 6.73333L128.926 2.91778L126.194 0L130.097 0.897774L134 0L131.268 2.91778Z" fill="#E7E7E7"/>
</g>
</svg>
